<!--<svg xmlns="http://www.w3.org/2000/svg" width="inherit" height="inherit" fill="inherit">
   <path d="M10.586 3l-6.586 6.586a2 2 0 0 0 -.434 2.18l.068 .145a2 2 0 0 0 1.78 1.089h2.586v7a2 2 0 0 0 2 2h4l.15 -.005a2 2 0 0 0 1.85 -1.995l-.001 -7h2.587a2 2 0 0 0 1.414 -3.414l-6.586 -6.586a2 2 0 0 0 -2.828 0z" stroke-width="0" fill="currentColor"></path>
</svg>-->

<svg xmlns="http://www.w3.org/2000/svg" height="1em" viewBox="0 0 384 512" ><path d="M169.4 470.6c12.5 12.5 32.8 12.5 45.3 0l160-160c12.5-12.5 12.5-32.8 0-45.3s-32.8-12.5-45.3 0L224 370.8 224 64c0-17.7-14.3-32-32-32s-32 14.3-32 32l0 306.7L54.6 265.4c-12.5-12.5-32.8-12.5-45.3 0s-12.5 32.8 0 45.3l160 160z"/></svg>